<svg xmlns="http://www.w3.org/2000/svg" viewBox="0 0 120 120" width="120" height="120">
  <defs>
    <linearGradient id="oceanGradient" x1="0%" y1="0%" x2="0%" y2="100%">
      <stop offset="0%" style="stop-color:#06b6d4;stop-opacity:1" />
      <stop offset="100%" style="stop-color:#0891b2;stop-opacity:1" />
    </linearGradient>
    <linearGradient id="waveGradient" x1="0%" y1="0%" x2="0%" y2="100%">
      <stop offset="0%" style="stop-color:#67e8f9;stop-opacity:0.8" />
      <stop offset="100%" style="stop-color:#22d3ee;stop-opacity:0.6" />
    </linearGradient>
  </defs>

  <!-- Background rounded square -->
  <rect x="10" y="10" width="100" height="100" rx="20" fill="url(#oceanGradient)"/>

  <!-- Letter M made of flowing waves/ribbons -->
  <path d="M 25 75 L 25 40 Q 25 35 30 35 L 35 35 L 47 55 L 60 35 L 73 55 L 85 35 L 90 35 Q 95 35 95 40 L 95 75 Q 95 80 90 80 L 85 80 Q 80 80 80 75 L 80 55 L 73 68 Q 70 73 65 70 L 60 63 L 55 70 Q 50 73 47 68 L 40 55 L 40 75 Q 40 80 35 80 L 30 80 Q 25 80 25 75 Z"
        fill="white"
        opacity="0.95"/>

  <!-- Flowing wave accent -->
  <path d="M 30 25 Q 45 20 60 25 Q 75 30 90 25"
        stroke="url(#waveGradient)"
        stroke-width="3"
        fill="none"
        stroke-linecap="round"/>

  <!-- Small bubbles for mermaid/ocean theme -->
  <circle cx="20" cy="30" r="2.5" fill="white" opacity="0.6"/>
  <circle cx="100" cy="35" r="3" fill="white" opacity="0.5"/>
  <circle cx="15" cy="90" r="2" fill="white" opacity="0.7"/>
  <circle cx="105" cy="85" r="2.5" fill="white" opacity="0.6"/>
</svg>
